<?xml version="1.0" encoding="UTF-8"?>
<!DOCTYPE svg PUBLIC "-//W3C//DTD SVG 1.1//EN" "http://www.w3.org/Graphics/SVG/1.1/DTD/svg11.dtd">
<!-- Creator: CorelDRAW X6 -->
<svg xmlns="http://www.w3.org/2000/svg" xml:space="preserve" width="42.3333mm" height="42.3334mm" version="1.1" style="shape-rendering:geometricPrecision; text-rendering:geometricPrecision; image-rendering:optimizeQuality; fill-rule:evenodd; clip-rule:evenodd"
viewBox="0 0 672 672"
 xmlns:xlink="http://www.w3.org/1999/xlink">
 <defs>
  <style type="text/css">
   <![CDATA[
    .str0 {stroke:white;stroke-width:11.9022;stroke-linecap:round;stroke-linejoin:round}
    .fil2 {fill:#6C6D6D;fill-rule:nonzero}
    .fil1 {fill:#9A9B9C;fill-rule:nonzero}
    .fil4 {fill:#9C9D9D;fill-rule:nonzero}
    .fil3 {fill:#C7C8C7;fill-rule:nonzero}
    .fil5 {fill:#D9DAD9;fill-rule:nonzero}
    .fil0 {fill:#FEFEFE;fill-rule:nonzero}
   ]]>
  </style>
 </defs>
 <g id="Layer_x0020_1">
  <metadata id="CorelCorpID_0Corel-Layer"/>
  <path class="fil0" d="M606 492c-86,149 -277,200 -426,114 -149,-86 -200,-277 -114,-426 86,-149 277,-200 426,-114 149,86 200,277 114,426z"/>
  <path class="fil1" d="M36 361l598 0c-12,154 -141,276 -299,276l0 0c-158,0 -287,-122 -299,-276z"/>
  <path class="fil2 str0" d="M469 412c1,-65 9,-187 -115,-228l-26 75c75,22 65,85 63,151l-33 -1 75 92 79 -89 -43 -1z"/>
  <polygon class="fil0" points="196,388 145,338 203,291 261,254 288,181 340,123 366,99 372,92 393,113 322,350 "/>
  <path class="fil3" d="M272 27l102 102 -64 214 -86 -86 37 -98 -82 -82c28,-23 59,-39 92,-50z"/>
  <path class="fil4" d="M111 157l47 47 104 -45 -82 -82c-8,7 -16,14 -24,22l0 0c-18,18 -33,37 -45,57z"/>
  <polygon class="fil5" points="262,159 224,258 115,299 158,204 "/>
  <polygon class="fil4" points="310,344 196,378 115,299 224,258 "/>
  <path class="fil4" d="M336 36c-165,0 -300,135 -300,300 0,165 135,300 300,300 165,0 300,-135 300,-300 0,-165 -135,-300 -300,-300zm0 636c-185,0 -336,-151 -336,-336 0,-185 151,-336 336,-336 185,0 336,151 336,336 0,185 -151,336 -336,336z"/>
  <path class="fil0" d="M186 78c-144,83 -193,266 -110,410 83,144 266,193 410,110 144,-83 193,-266 110,-410 -83,-144 -266,-193 -410,-110zm9 16c135,-78 307,-31 385,103 78,135 31,307 -103,385 -135,78 -307,31 -385,-103 -78,-134 -31,-307 103,-385z"/>
 </g>
</svg>
