# Blender v2.69 (sub 0) OBJ File: ''
# www.blender.org
mtllib bedInner.mtl
o a_3DEA_GLASS_SHEET_2_PRT___.002
v 0.499995 4.000000 0.000001
v 0.588703 3.217454 0.000001
v 0.499813 146.000000 0.000024
v 0.588504 146.782486 0.000024
v 0.848306 2.478501 0.000000
v 0.848074 147.521408 0.000024
v 1.264727 1.816919 0.000000
v 1.264462 148.182983 0.000024
v 1.817007 1.264650 0.000000
v 1.816727 148.735275 0.000024
v 2.478591 0.848270 0.000000
v 2.478309 149.151703 0.000024
v 3.217513 0.588696 0.000000
v 3.217266 149.411285 0.000024
v 3.999999 0.500005 0.000000
v 3.999809 149.500000 0.000024
v 206.000000 0.500264 0.000000
v 205.999802 149.500259 0.000024
v 206.782547 0.588972 0.000000
v 206.782288 149.411575 0.000024
v 207.521500 0.848571 0.000000
v 207.521210 149.151993 0.000024
v 208.183090 1.264991 0.000000
v 208.182800 148.735611 0.000024
v 208.735352 1.817276 0.000000
v 208.735092 148.183350 0.000024
v 209.151733 2.478859 0.000000
v 209.151505 147.521774 0.000024
v 209.411301 3.217782 0.000001
v 209.411118 146.782822 0.000024
v 209.500000 4.000268 0.000001
v 209.499817 146.000275 0.000024
v 0.872483 148.493958 -0.499976
v 1.505851 149.127319 -0.499976
v 2.264274 149.603882 -0.499976
v 3.109725 149.899719 -0.499976
v 3.999808 150.000000 -0.499976
v -0.000187 146.000000 -0.499976
v 0.100100 146.890076 -0.499976
v 0.395937 147.735535 -0.499975
v -0.000005 4.000000 -0.499999
v 1.506041 0.872675 -0.500000
v 0.872671 1.506043 -0.500000
v 0.396123 2.264466 -0.500000
v 0.100284 3.109917 -0.499999
v 4.000000 0.000005 -0.500000
v 3.109917 0.100292 -0.500000
v 2.264465 0.396129 -0.500000
v 206.000000 0.000264 -0.500000
v 209.127319 1.506310 -0.500000
v 208.493958 0.872940 -0.500000
v 207.735535 0.396392 -0.500000
v 206.890091 0.100553 -0.500000
v 210.000000 4.000268 -0.499999
v 209.899704 3.110186 -0.499999
v 209.603882 2.264734 -0.500000
v 209.999817 146.000275 -0.499976
v 208.493759 149.127579 -0.499976
v 209.127136 148.494232 -0.499976
v 209.603699 147.735809 -0.499975
v 209.899536 146.890350 -0.499976
v 205.999802 150.000259 -0.499976
v 206.889893 149.899979 -0.499976
v 207.735336 149.604141 -0.499976
v 3.999808 150.000000 -2.499975
v 205.999802 150.000259 -2.499975
v -0.000187 146.000000 -2.499976
v 0.100100 146.890076 -2.499976
v 0.395937 147.735535 -2.499976
v 0.872483 148.493958 -2.499976
v 1.505851 149.127319 -2.499976
v 2.264274 149.603882 -2.499976
v 3.109725 149.899719 -2.499976
v -0.000005 4.000000 -2.499999
v 4.000000 0.000005 -2.500000
v 3.109917 0.100292 -2.500000
v 2.264465 0.396129 -2.500000
v 1.506041 0.872674 -2.500000
v 0.872671 1.506043 -2.500000
v 0.396123 2.264466 -2.500000
v 0.100284 3.109917 -2.500000
v 206.000000 0.000263 -2.500000
v 210.000000 4.000268 -2.499999
v 209.899719 3.110185 -2.500000
v 209.603882 2.264734 -2.500000
v 209.127319 1.506310 -2.500000
v 208.493958 0.872939 -2.500000
v 207.735535 0.396391 -2.500000
v 206.890091 0.100552 -2.500000
v 209.999817 146.000275 -2.499976
v 206.889893 149.899979 -2.499976
v 207.735336 149.604141 -2.499976
v 208.493759 149.127579 -2.499976
v 209.127136 148.494232 -2.499976
v 209.603699 147.735809 -2.499976
v 209.899536 146.890350 -2.499976
v 209.151550 147.521683 -2.999976
v 208.735168 148.183258 -2.999976
v 208.182907 148.735535 -2.999976
v 207.521301 149.151962 -2.999976
v 206.782349 149.411545 -2.999976
v 205.999802 149.500259 -2.999976
v 209.499817 146.000275 -2.999976
v 209.411118 146.782761 -2.999976
v 0.499813 146.000000 -2.999976
v 0.588519 146.782547 -2.999976
v 0.499995 4.000000 -2.999999
v 0.588688 3.217515 -3.000000
v 0.848120 147.521500 -2.999976
v 0.848260 2.478594 -3.000000
v 1.264539 148.183075 -2.999976
v 1.264650 1.817011 -3.000000
v 1.816819 148.735352 -2.999976
v 1.816915 1.264727 -3.000000
v 2.478401 149.151733 -2.999976
v 2.478499 0.848309 -3.000000
v 3.217323 149.411316 -2.999976
v 3.217456 0.588712 -3.000000
v 3.999809 149.500000 -2.999976
v 3.999999 0.500005 -3.000000
v 206.000000 0.500263 -3.000000
v 206.782486 0.588957 -3.000000
v 207.521408 0.848532 -3.000000
v 208.182983 1.264915 -3.000000
v 208.735275 1.817184 -3.000000
v 209.151688 2.478767 -3.000000
v 209.411301 3.217721 -3.000000
v 209.500000 4.000268 -2.999999
vn 0.000000 -0.000000 1.000000
vn -0.600014 0.377642 0.705245
vn -0.501471 0.501446 0.705038
vn -0.501488 0.501493 0.704993
vn -0.377660 0.599992 0.705253
vn -0.377434 0.600666 0.704801
vn -0.234925 0.668764 0.705383
vn -0.234357 0.669750 0.704636
vn -0.079857 0.704414 0.705283
vn -0.079414 0.704868 0.704879
vn -0.704867 0.079893 0.704826
vn -0.704501 0.079378 0.705250
vn -0.669740 0.234350 0.704648
vn -0.668774 0.234928 0.705372
vn -0.600666 0.377422 0.704807
vn -0.707107 -0.000001 0.707107
vn -0.377632 -0.600018 0.705246
vn -0.501470 -0.501480 0.705015
vn -0.501477 -0.501479 0.705010
vn -0.599987 -0.377651 0.705262
vn -0.600675 -0.377429 0.704796
vn -0.668762 -0.234944 0.705378
vn -0.669747 -0.234357 0.704638
vn -0.704419 -0.079852 0.705278
vn -0.704873 -0.079421 0.704873
vn -0.079891 -0.704846 0.704847
vn -0.079377 -0.704505 0.705246
vn -0.234354 -0.669744 0.704643
vn -0.234932 -0.668775 0.705370
vn -0.377422 -0.600668 0.704805
vn 0.000001 -0.707107 0.707107
vn 0.600021 -0.377636 0.705242
vn 0.501484 -0.501477 0.705007
vn 0.501493 -0.501462 0.705012
vn 0.377644 -0.600013 0.705244
vn 0.377430 -0.600677 0.704793
vn 0.234946 -0.668751 0.705388
vn 0.234356 -0.669752 0.704634
vn 0.079851 -0.704426 0.705271
vn 0.079419 -0.704879 0.704867
vn 0.704848 -0.079871 0.704848
vn 0.704502 -0.079421 0.705245
vn 0.669753 -0.234309 0.704649
vn 0.668770 -0.234938 0.705373
vn 0.600659 -0.377430 0.704809
vn 0.707107 0.000001 0.707107
vn 0.377624 0.600036 0.705236
vn 0.501462 0.501476 0.705023
vn 0.501461 0.501498 0.705008
vn 0.600003 0.377629 0.705261
vn 0.600654 0.377452 0.704801
vn 0.668757 0.234952 0.705381
vn 0.669740 0.234351 0.704648
vn 0.704429 0.079859 0.705267
vn 0.704874 0.079415 0.704873
vn 0.079884 0.704866 0.704828
vn 0.079374 0.704489 0.705262
vn 0.234351 0.669739 0.704648
vn 0.234942 0.668754 0.705386
vn 0.377437 0.600671 0.704795
vn -0.000001 0.707107 0.707107
vn -0.000001 1.000000 0.000000
vn -0.993712 0.111964 0.000000
vn -0.943884 0.330277 0.000000
vn -0.846726 0.532030 0.000000
vn -0.707103 0.707110 0.000000
vn -0.532043 0.846717 0.000000
vn -0.330280 0.943883 0.000000
vn -0.111956 0.993713 0.000000
vn -1.000000 -0.000001 0.000000
vn -0.111963 -0.993712 -0.000000
vn -0.330280 -0.943883 -0.000000
vn -0.532030 -0.846726 -0.000000
vn -0.532028 -0.846726 0.000000
vn -0.707106 -0.707108 0.000000
vn -0.707106 -0.707107 -0.000000
vn -0.846725 -0.532032 0.000000
vn -0.846724 -0.532032 0.000000
vn -0.943882 -0.330282 0.000000
vn -0.993712 -0.111965 -0.000000
vn 0.000001 -1.000000 0.000000
vn 0.993709 -0.111990 -0.000000
vn 0.993713 -0.111956 0.000008
vn 0.943883 -0.330280 0.000007
vn 0.943883 -0.330280 0.000000
vn 0.846718 -0.532043 0.000000
vn 0.846717 -0.532043 0.000000
vn 0.707111 -0.707102 -0.000000
vn 0.707112 -0.707102 0.000000
vn 0.532031 -0.846725 0.000000
vn 0.532032 -0.846724 0.000000
vn 0.330279 -0.943883 0.000000
vn 0.330290 -0.943880 0.000000
vn 0.111962 -0.993712 0.000000
vn 0.111966 -0.993712 0.000000
vn 1.000000 0.000001 0.000000
vn 0.111953 0.993713 0.000000
vn 0.111961 0.993713 0.000000
vn 0.330278 0.943884 0.000000
vn 0.330288 0.943880 0.000000
vn 0.532028 0.846727 0.000000
vn 0.532043 0.846717 0.000000
vn 0.707081 0.707132 0.000000
vn 0.707115 0.707098 0.000000
vn 0.846702 0.532068 0.000000
vn 0.846717 0.532043 0.000000
vn 0.943884 0.330277 0.000000
vn 0.943895 0.330247 0.000000
vn 0.993709 0.111991 0.000000
vn 0.993713 0.111957 0.000000
vn 0.600021 0.377641 -0.705239
vn 0.501484 0.501457 -0.705021
vn 0.501483 0.501519 -0.704978
vn 0.377658 0.599997 -0.705250
vn 0.377445 0.600684 -0.704780
vn 0.234935 0.668788 -0.705357
vn 0.234349 0.669734 -0.704654
vn 0.079858 0.704409 -0.705288
vn 0.079414 0.704886 -0.704861
vn 0.704850 0.079885 -0.704843
vn 0.704501 0.079373 -0.705250
vn 0.669731 0.234348 -0.704657
vn 0.668772 0.234939 -0.705370
vn 0.600655 0.377428 -0.704813
vn 0.000000 0.000000 -1.000000
vn -0.000010 0.000000 -1.000000
vn 0.000002 0.000000 -1.000000
vn -0.000001 0.000000 -1.000000
vn 0.000001 0.000000 -1.000000
vn -0.000002 0.000000 -1.000000
vn 0.000010 0.000000 -1.000000
vn -0.000001 0.707107 -0.707107
vn -0.377632 0.600013 -0.705251
vn -0.501472 0.501475 -0.705017
vn -0.501475 0.501480 -0.705011
vn -0.599985 0.377652 -0.705264
vn -0.600663 0.377420 -0.704810
vn -0.668772 0.234946 -0.705368
vn -0.669740 0.234351 -0.704648
vn -0.704430 0.079851 -0.705268
vn -0.704873 0.079420 -0.704873
vn -0.079884 0.704840 -0.704854
vn -0.079372 0.704501 -0.705250
vn -0.234360 0.669759 -0.704626
vn -0.234935 0.668760 -0.705384
vn -0.377425 0.600650 -0.704819
vn -0.707107 -0.000001 -0.707107
vn -0.600010 -0.377638 -0.705250
vn -0.501481 -0.501464 -0.705018
vn -0.501480 -0.501480 -0.705008
vn -0.377651 -0.599991 -0.705260
vn -0.377428 -0.600678 -0.704793
vn -0.234939 -0.668767 -0.705375
vn -0.234355 -0.669747 -0.704639
vn -0.079850 -0.704419 -0.705278
vn -0.079419 -0.704873 -0.704873
vn -0.704847 -0.079893 -0.704846
vn -0.704503 -0.079379 -0.705248
vn -0.669743 -0.234355 -0.704643
vn -0.668777 -0.234931 -0.705368
vn -0.600669 -0.377425 -0.704803
vn 0.000001 -0.707107 -0.707107
vn 0.377639 -0.600003 -0.705255
vn 0.501458 -0.501492 -0.705015
vn 0.501487 -0.501479 -0.705003
vn 0.600004 -0.377626 -0.705261
vn 0.600665 -0.377434 -0.704802
vn 0.668748 -0.234975 -0.705381
vn 0.669748 -0.234356 -0.704638
vn 0.704422 -0.079830 -0.705278
vn 0.704873 -0.079414 -0.704874
vn 0.079894 -0.704839 -0.704853
vn 0.079377 -0.704509 -0.705242
vn 0.234359 -0.669734 -0.704651
vn 0.234928 -0.668789 -0.705358
vn 0.377429 -0.600652 -0.704816
vn 0.707107 0.000001 -0.707107
usemtl None.003
s off
f 1//1 2//1 3//1
f 3//1 2//1 4//1
f 2//1 5//1 4//1
f 4//1 5//1 6//1
f 5//1 7//1 6//1
f 6//1 7//1 8//1
f 7//1 9//1 8//1
f 8//1 9//1 10//1
f 9//1 11//1 10//1
f 10//1 11//1 12//1
f 11//1 13//1 12//1
f 12//1 13//1 14//1
f 13//1 15//1 14//1
f 14//1 15//1 16//1
f 15//1 17//1 16//1
f 16//1 17//1 18//1
f 17//1 19//1 18//1
f 18//1 19//1 20//1
f 19//1 21//1 20//1
f 20//1 21//1 22//1
f 21//1 23//1 22//1
f 22//1 23//1 24//1
f 23//1 25//1 24//1
f 24//1 25//1 26//1
f 25//1 27//1 26//1
f 26//1 27//1 28//1
f 27//1 29//1 28//1
f 28//1 29//1 30//1
f 29//1 31//1 30//1
f 30//1 31//1 32//1
f 6//2 8//2 33//2
f 8//3 10//3 33//3
f 33//4 10//4 34//4
f 10//5 12//5 34//5
f 34//6 12//6 35//6
f 12//7 14//7 35//7
f 35//8 14//8 36//8
f 14//9 16//9 36//9
f 36//10 16//10 37//10
f 38//11 3//11 4//11
f 38//12 4//12 39//12
f 39//13 4//13 40//13
f 4//14 6//14 40//14
f 40//15 6//15 33//15
f 1//16 3//16 41//16
f 3//16 38//16 41//16
f 11//17 9//17 42//17
f 9//18 7//18 42//18
f 42//19 7//19 43//19
f 7//20 5//20 43//20
f 43//21 5//21 44//21
f 5//22 2//22 44//22
f 44//23 2//23 45//23
f 2//24 1//24 45//24
f 45//25 1//25 41//25
f 46//26 15//26 13//26
f 46//27 13//27 47//27
f 47//28 13//28 48//28
f 13//29 11//29 48//29
f 48//30 11//30 42//30
f 17//31 15//31 49//31
f 15//31 46//31 49//31
f 27//32 25//32 50//32
f 25//33 23//33 50//33
f 50//34 23//34 51//34
f 23//35 21//35 51//35
f 51//36 21//36 52//36
f 21//37 19//37 52//37
f 52//38 19//38 53//38
f 19//39 17//39 53//39
f 53//40 17//40 49//40
f 54//41 31//41 29//41
f 54//42 29//42 55//42
f 55//43 29//43 56//43
f 29//44 27//44 56//44
f 56//45 27//45 50//45
f 32//46 31//46 57//46
f 31//46 54//46 57//46
f 22//47 24//47 58//47
f 24//48 26//48 58//48
f 58//49 26//49 59//49
f 26//50 28//50 59//50
f 59//51 28//51 60//51
f 28//52 30//52 60//52
f 60//53 30//53 61//53
f 30//54 32//54 61//54
f 61//55 32//55 57//55
f 62//56 18//56 20//56
f 62//57 20//57 63//57
f 63//58 20//58 64//58
f 20//59 22//59 64//59
f 64//60 22//60 58//60
f 16//61 18//61 37//61
f 18//61 62//61 37//61
f 37//62 62//62 65//62
f 62//62 66//62 65//62
f 38//63 39//63 67//63
f 67//63 39//63 68//63
f 39//64 40//64 68//64
f 68//64 40//64 69//64
f 40//65 33//65 69//65
f 69//65 33//65 70//65
f 33//66 34//66 70//66
f 70//66 34//66 71//66
f 34//67 35//67 71//67
f 71//67 35//67 72//67
f 35//68 36//68 72//68
f 72//68 36//68 73//68
f 36//69 37//69 73//69
f 73//69 37//69 65//69
f 41//70 38//70 74//70
f 38//70 67//70 74//70
f 46//71 47//71 75//71
f 75//71 47//71 76//71
f 47//72 48//72 76//72
f 76//72 48//72 77//72
f 48//73 42//73 77//73
f 77//74 42//74 78//74
f 42//75 43//75 78//75
f 78//76 43//76 79//76
f 43//77 44//77 79//77
f 79//78 44//78 80//78
f 44//79 45//79 80//79
f 80//79 45//79 81//79
f 45//80 41//80 81//80
f 81//80 41//80 74//80
f 49//81 46//81 82//81
f 46//81 75//81 82//81
f 54//82 55//82 83//82
f 83//83 55//83 84//83
f 55//84 56//84 84//84
f 84//85 56//85 85//85
f 56//86 50//86 85//86
f 85//87 50//87 86//87
f 50//88 51//88 86//88
f 86//89 51//89 87//89
f 51//90 52//90 87//90
f 87//91 52//91 88//91
f 52//92 53//92 88//92
f 88//93 53//93 89//93
f 53//94 49//94 89//94
f 89//95 49//95 82//95
f 57//96 54//96 90//96
f 54//96 83//96 90//96
f 62//97 63//97 66//97
f 66//98 63//98 91//98
f 63//99 64//99 91//99
f 91//100 64//100 92//100
f 64//101 58//101 92//101
f 92//102 58//102 93//102
f 58//103 59//103 93//103
f 93//104 59//104 94//104
f 59//105 60//105 94//105
f 94//106 60//106 95//106
f 60//107 61//107 95//107
f 95//108 61//108 96//108
f 61//109 57//109 96//109
f 96//110 57//110 90//110
f 97//111 98//111 94//111
f 98//112 99//112 94//112
f 94//113 99//113 93//113
f 99//114 100//114 93//114
f 93//115 100//115 92//115
f 100//116 101//116 92//116
f 92//117 101//117 91//117
f 101//118 102//118 91//118
f 91//119 102//119 66//119
f 90//120 103//120 104//120
f 90//121 104//121 96//121
f 96//122 104//122 95//122
f 104//123 97//123 95//123
f 95//124 97//124 94//124
f 105//125 106//125 107//125
f 107//126 106//126 108//126
f 106//127 109//127 108//127
f 108//125 109//125 110//125
f 109//125 111//125 110//125
f 110//128 111//128 112//128
f 111//127 113//127 112//127
f 112//128 113//128 114//128
f 113//129 115//129 114//129
f 114//129 115//129 116//129
f 115//125 117//125 116//125
f 116//128 117//128 118//128
f 117//125 119//125 118//125
f 118//128 119//128 120//128
f 119//125 102//125 120//125
f 120//125 102//125 121//125
f 102//125 101//125 121//125
f 121//129 101//129 122//129
f 101//125 100//125 122//125
f 122//125 100//125 123//125
f 100//129 99//129 123//129
f 123//128 99//128 124//128
f 99//128 98//128 124//128
f 124//129 98//129 125//129
f 98//125 97//125 125//125
f 125//127 97//127 126//127
f 97//130 104//130 126//130
f 126//125 104//125 127//125
f 104//125 103//125 127//125
f 127//131 103//131 128//131
f 102//132 119//132 66//132
f 119//132 65//132 66//132
f 115//133 113//133 71//133
f 113//134 111//134 71//134
f 71//135 111//135 70//135
f 111//136 109//136 70//136
f 70//137 109//137 69//137
f 109//138 106//138 69//138
f 69//139 106//139 68//139
f 106//140 105//140 68//140
f 68//141 105//141 67//141
f 65//142 119//142 117//142
f 65//143 117//143 73//143
f 73//144 117//144 72//144
f 117//145 115//145 72//145
f 72//146 115//146 71//146
f 105//147 107//147 67//147
f 107//147 74//147 67//147
f 110//148 112//148 79//148
f 112//149 114//149 79//149
f 79//150 114//150 78//150
f 114//151 116//151 78//151
f 78//152 116//152 77//152
f 116//153 118//153 77//153
f 77//154 118//154 76//154
f 118//155 120//155 76//155
f 76//156 120//156 75//156
f 74//157 107//157 108//157
f 74//158 108//158 81//158
f 81//159 108//159 80//159
f 108//160 110//160 80//160
f 80//161 110//161 79//161
f 120//162 121//162 75//162
f 121//162 82//162 75//162
f 123//163 124//163 87//163
f 124//164 125//164 87//164
f 87//165 125//165 86//165
f 125//166 126//166 86//166
f 86//167 126//167 85//167
f 126//168 127//168 85//168
f 85//169 127//169 84//169
f 127//170 128//170 84//170
f 84//171 128//171 83//171
f 82//172 121//172 122//172
f 82//173 122//173 89//173
f 89//174 122//174 88//174
f 122//175 123//175 88//175
f 88//176 123//176 87//176
f 128//177 103//177 83//177
f 103//177 90//177 83//177
