<?xml version="1.0" encoding="utf-8"?>
<!-- Generator: Adobe Illustrator 16.0.3, SVG Export Plug-In . SVG Version: 6.00 Build 0)  -->
<!DOCTYPE svg PUBLIC "-//W3C//DTD SVG 1.1//EN" "http://www.w3.org/Graphics/SVG/1.1/DTD/svg11.dtd">
<svg version="1.1" id="Layer_1" xmlns="http://www.w3.org/2000/svg" xmlns:xlink="http://www.w3.org/1999/xlink" x="0px" y="0px"
	 width="865px" height="440px" viewBox="135 361.525 865 440" enable-background="new 135 361.525 865 440" xml:space="preserve">
<g>
	<g>
		<rect x="175" y="751.525" fill-rule="evenodd" clip-rule="evenodd" fill="#FFFFFF" width="50" height="2"/>
		<rect x="176" y="787.525" fill-rule="evenodd" clip-rule="evenodd" fill="#009EE3" width="50" height="4"/>
	</g>
</g>
<g>
	<rect x="600" y="361.525" fill="#414141" width="400" height="210"/>
	<rect x="600" y="591.525" fill="#414141" width="400" height="210"/>
	<g>
		<path fill="#FF0000" d="M775.178,720.246l21.059-21.058l-21.059-21.053l8.908-8.946l21.055,21.053l21.09-21.053l8.947,8.904
			l-21.096,21.095l21.096,21.088l-8.947,8.913l-21.09-21.057l-21.055,21.057L775.178,720.246z"/>
		<g>
			<path fill="#009EE3" d="M693.531,644.189v85.937c0,13.27,10.794,24.063,24.061,24.063s24.061-10.794,24.061-24.063v-85.937
				h-6.875v85.937c0,9.491-7.694,17.188-17.186,17.188c-9.495,0-17.186-7.697-17.186-17.188v-85.937H693.531z"/>
			<path fill="#FFFFFF" d="M702.35,644.189v85.937c0,7.119,5.771,12.89,12.891,12.89s12.891-5.771,12.891-12.89v-85.937h-2.578
				v85.937c0,5.686-4.623,10.311-10.313,10.311c-5.686,0-10.312-4.625-10.312-10.311v-85.937H702.35z"/>
		</g>
		<g>
			<path fill="#009EE3" d="M643.511,747.488c7.364,0,13.339-5.974,13.339-13.343v-90.198h-6.889v90.198
				c0,3.56-2.894,6.454-6.45,6.454c-3.564,0-6.464-2.895-6.464-6.454v-90.198h-6.887v90.198
				C630.16,741.515,636.134,747.488,643.511,747.488z"/>
			<path fill="#FFFFFF" d="M621.211,643.947v90.198c0,10.919,8.884,19.802,19.809,19.802c10.914,0,19.796-8.883,19.796-19.802
				v-90.198h-2.585v90.198c0,9.509-7.706,17.22-17.211,17.22c-9.515,0-17.228-7.711-17.228-17.22v-90.198H621.211z"/>
		</g>
		<g>
			<path fill="#009EE3" d="M868.547,754.189h85.937c13.27,0,24.063-10.794,24.063-24.061s-10.794-24.061-24.063-24.061h-85.937
				v6.875h85.937c9.491,0,17.188,7.694,17.188,17.186c0,9.495-7.697,17.186-17.188,17.186h-85.937V754.189z"/>
			<path fill="#FFFFFF" d="M868.547,740.669h85.937c7.119,0,12.891-5.771,12.891-12.891c0-7.118-5.771-12.891-12.891-12.891h-85.937
				v2.578h85.937c5.686,0,10.312,4.625,10.312,10.313s-4.626,10.312-10.312,10.312h-85.937V740.669z"/>
		</g>
		<g>
			<path fill="#009EE3" d="M972.33,661.494c0-7.366-5.974-13.34-13.343-13.34h-90.198v6.89h90.198c3.56,0,6.454,2.892,6.454,6.45
				c0,3.563-2.895,6.462-6.454,6.462h-90.198v6.888h90.198C966.357,674.844,972.33,668.87,972.33,661.494z"/>
			<path fill="#FFFFFF" d="M868.789,683.794h90.198c10.919,0,19.802-8.886,19.802-19.809c0-10.915-8.883-19.796-19.802-19.796
				h-90.198v2.583h90.198c9.509,0,17.22,7.706,17.22,17.213c0,9.515-7.711,17.227-17.22,17.227h-90.198V683.794z"/>
		</g>
	</g>
	<g>
		<path fill="#00D646" d="M773.293,471.295l-2.301-2.482c-0.262-0.335-0.395-0.692-0.395-1.075c0-0.46,0.18-0.862,0.541-1.225
			l6.609-6.214c0.311-0.264,0.682-0.393,1.119-0.393c0.211,0,0.428,0.042,0.643,0.124c0.213,0.083,0.395,0.212,0.541,0.377
			l18.211,19.648l31.363-40.377c0.365-0.408,0.793-0.61,1.297-0.61c0.383,0,0.719,0.12,1.008,0.356l7.219,5.567
			c0.145,0.125,0.281,0.296,0.414,0.523c0.131,0.227,0.195,0.434,0.195,0.63c0,0.408-0.117,0.791-0.355,1.147l-40.307,51.775
			L773.293,471.295z"/>
		<g>
			<g>
				<path fill="#009FE3" d="M717.592,414.189c-13.267,0-24.061,10.795-24.061,24.064v85.936h6.875v-85.936
					c0-9.49,7.693-17.188,17.186-17.188c9.495,0,17.186,7.698,17.186,17.188v85.936h6.875v-85.936
					C741.653,424.984,730.859,414.189,717.592,414.189z"/>
				<path fill="#FFFFFF" d="M717.592,425.363c-7.118,0-12.891,5.771-12.891,12.891v85.936h2.578v-85.936
					c0-5.687,4.623-10.311,10.313-10.311c5.687,0,10.312,4.624,10.312,10.311v85.936h2.579v-85.936
					C730.483,431.134,724.713,425.363,717.592,425.363z"/>
			</g>
			<g>
				<path fill="#009EE3" d="M641.02,517.487c7.363,0,13.338-5.974,13.338-13.342v-90.198h-6.887v90.198
					c0,3.56-2.896,6.454-6.451,6.454c-3.565,0-6.465-2.895-6.465-6.454v-90.198h-6.887v90.198
					C627.668,511.514,633.642,517.487,641.02,517.487z"/>
				<path fill="#FFFFFF" d="M621.211,413.947v90.198c0,10.918,8.884,19.802,19.809,19.802c10.914,0,19.797-8.884,19.797-19.802
					v-90.198h-2.586v90.198c0,9.51-7.705,17.218-17.211,17.218c-9.516,0-17.229-7.708-17.229-17.218v-90.198H621.211z"/>
			</g>
		</g>
		<g>
			<path fill="#009EE3" d="M978.547,476.068h-85.937c-13.27,0-24.063,10.794-24.063,24.061s10.794,24.061,24.063,24.061h85.937
				v-6.875h-85.937c-9.491,0-17.188-7.693-17.188-17.186c0-9.495,7.697-17.186,17.188-17.186h85.937V476.068z"/>
			<path fill="#FFFFFF" d="M978.547,487.238h-85.937c-7.119,0-12.891,5.771-12.891,12.891s5.771,12.891,12.891,12.891h85.937v-2.578
				h-85.937c-5.686,0-10.312-4.623-10.312-10.313c0-5.686,4.626-10.312,10.312-10.312h85.937V487.238z"/>
		</g>
		<g>
			<path fill="#009EE3" d="M972.329,433.986c0-7.366-5.974-13.34-13.342-13.34h-90.198v6.888h90.198c3.56,0,6.454,2.895,6.454,6.452
				c0,3.563-2.895,6.463-6.454,6.463h-90.198v6.887h90.198C966.356,447.336,972.329,441.362,972.329,433.986z"/>
			<path fill="#FFFFFF" d="M868.789,453.794h90.198c10.919,0,19.802-8.885,19.802-19.808c0-10.915-8.883-19.797-19.802-19.797
				h-90.198v2.584h90.198c9.509,0,17.22,7.706,17.22,17.213c0,9.514-7.711,17.226-17.22,17.226h-90.198V453.794z"/>
		</g>
	</g>
</g>
<g>
	<g>
		<g>
			<path fill="#009FE3" d="M360.01,429.524h32.321c4.143,0,7.501-3.356,7.501-7.499c0-4.144-3.358-7.498-7.501-7.498H360.01
				c-5.522,0-9.999-4.478-9.999-10.003c0-5.524,4.477-10,9.999-10h32.321c4.143,0,7.501-3.358,7.501-7.5
				c0-4.143-3.358-7.499-7.501-7.499h-81.829v89.172l12.499,5.827l-12.499,5.829v56.674h-56.673L248,549.525l-5.83-12.498h-89.171
				v81.83c0,4.142,3.357,7.5,7.5,7.5s7.501-3.358,7.501-7.5v-32.324c0-5.522,4.476-10,9.999-10s10,4.478,10,10v32.324
				c0,4.142,3.356,7.5,7.499,7.5s7.502-3.358,7.502-7.5v-32.324c0-5.522,4.477-10,9.999-10c5.524,0,10,4.478,10,10v32.324
				c0,4.142,3.358,7.5,7.5,7.5c4.143,0,7.501-3.358,7.501-7.5v-32.324c0-5.522,4.476-10,10-10c5.522,0,10.001,4.478,10.001,10
				v32.324c0,4.142,3.357,7.5,7.5,7.5s7.499-3.358,7.499-7.5v-32.324c0-5.522,4.477-10,10-10s9.999,4.478,9.999,10v32.324
				c0,4.142,3.358,7.5,7.501,7.5c4.142,0,7.5-3.358,7.5-7.5v-32.324c0-5.522,4.476-10,10.001-10c5.523,0,10,4.478,10,10v32.324
				c0,4.142,3.358,7.5,7.5,7.5c4.143,0,7.499-3.358,7.499-7.5v-49.332h49.331c4.143,0,7.501-3.357,7.501-7.499
				c0-4.143-3.358-7.499-7.501-7.499H360.01c-5.522,0-9.999-4.477-9.999-10s4.477-9.999,9.999-9.999h32.321
				c4.143,0,7.501-3.361,7.501-7.504s-3.358-7.501-7.501-7.501H360.01c-5.522,0-9.999-4.475-9.999-9.999
				c0-5.522,4.477-9.999,9.999-9.999h32.321c4.143,0,7.501-3.357,7.501-7.5c0-4.142-3.358-7.498-7.501-7.498H360.01
				c-5.522,0-9.999-4.48-9.999-10.003c0-5.521,4.477-9.997,9.999-9.997h32.321c4.143,0,7.501-3.36,7.501-7.5
				c0-4.146-3.358-7.502-7.501-7.502H360.01c-5.522,0-9.999-4.477-9.999-10C350.011,434.003,354.488,429.524,360.01,429.524z
				 M348.512,439.525c0,6.351,5.147,11.498,11.498,11.498h32.321c3.314,0,6.001,2.687,6.001,6.004c0,3.312-2.687,5.997-6.001,5.997
				H360.01c-6.351,0-11.498,5.151-11.498,11.5c0,6.354,5.147,11.501,11.498,11.501h32.321c3.314,0,6.001,2.686,6.001,6
				c0,3.313-2.687,6.001-6.001,6.001H360.01c-6.351,0-11.498,5.147-11.498,11.498c0,6.353,5.147,11.503,11.498,11.503h32.321
				c3.314,0,6.001,2.686,6.001,5.997c0,3.314-2.687,6.001-6.001,6.001H360.01c-6.351,0-11.498,5.147-11.498,11.502
				c0,6.351,5.147,11.498,11.498,11.498h32.321c3.314,0,6.001,2.687,6.001,6.001s-2.687,6-6.001,6h-50.829v50.831
				c0,3.313-2.687,6.001-6.001,6.001s-6-2.688-6-6.001v-32.324c0-6.351-5.149-11.498-11.5-11.498
				c-6.354,0-11.501,5.147-11.501,11.498v32.324c0,3.313-2.686,6.001-6,6.001s-6.001-2.688-6.001-6.001v-32.324
				c0-6.351-5.147-11.498-11.499-11.498c-6.351,0-11.498,5.147-11.498,11.498v32.324c0,3.313-2.689,6.001-6.001,6.001
				c-3.314,0-6-2.688-6-6.001v-32.324c0-6.351-5.151-11.498-11.501-11.498c-6.353,0-11.5,5.147-11.5,11.498v32.324
				c0,3.313-2.686,6.001-6.001,6.001c-3.314,0-6-2.688-6-6.001v-32.324c0-6.351-5.147-11.498-11.5-11.498
				c-6.352,0-11.501,5.147-11.501,11.498v32.324c0,3.313-2.683,6.001-6,6.001c-3.312,0-5.997-2.688-5.997-6.001v-32.324
				c0-6.351-5.148-11.498-11.502-11.498c-6.352,0-11.499,5.147-11.499,11.498v32.324c0,3.313-2.687,6.001-6.001,6.001
				s-6-2.688-6-6.001v-80.333h86.718L248,553.075l6.784-14.551h57.215v-57.216l14.552-6.784l-14.552-6.783v-86.718h80.332
				c3.314,0,6.001,2.686,6.001,6.001c0,3.314-2.687,6-6.001,6H360.01c-6.351,0-11.498,5.147-11.498,11.5
				c0,6.354,5.147,11.501,11.498,11.501h32.321c3.314,0,6.001,2.686,6.001,6s-2.687,6.001-6.001,6.001H360.01
				C353.659,428.026,348.512,433.176,348.512,439.525z"/>
		</g>
		<path fill="#FFFFFF" d="M415.106,601.632L435,571.936V376.524c0-8.284-6.714-14.999-14.999-14.999h-99.999
			c-5.524,0-10,4.477-10,9.999v3.749h81.829c5.522,0,10,4.477,10,10.003c0,5.522-4.478,9.999-10,9.999H359.51
			c-4.279,0-7.749,3.467-7.749,7.75c0,4.28,3.47,7.749,7.749,7.749h32.321c5.522,0,10,4.476,10,10s-4.478,10.001-10,10.001H359.51
			c-4.279,0-7.749,3.469-7.749,7.748c0,4.282,3.47,7.751,7.749,7.751h32.321c5.522,0,10,4.477,10,9.999
			c0,5.526-4.478,10.003-10,10.003H359.51c-4.279,0-7.749,3.469-7.749,7.748c0,4.282,3.47,7.749,7.749,7.749h32.321
			c5.522,0,10,4.478,10,10c0,5.527-4.478,10.003-10,10.003H359.51c-4.279,0-7.749,3.468-7.749,7.747c0,4.283,3.47,7.752,7.749,7.752
			h32.321c5.522,0,10,4.477,10,10.002c0,5.523-4.478,10-10,10H359.51c-4.279,0-7.749,3.467-7.749,7.748
			c0,4.282,3.47,7.749,7.749,7.749h32.321c5.522,0,10,4.478,10,10.003c0,5.52-4.478,10-10,10h-45.582v45.58
			c0,5.523-4.477,10.002-9.996,10.002c-5.526,0-10.003-4.479-10.003-10.002v-32.324c0-4.279-3.469-7.749-7.751-7.749
			c-4.279,0-7.747,3.47-7.747,7.749v32.324c0,5.523-4.479,10.002-9.999,10.002c-5.527,0-10.003-4.479-10.003-10.002v-32.324
			c0-4.279-3.469-7.749-7.751-7.749c-4.279,0-7.748,3.47-7.748,7.749v32.324c0,5.523-4.479,10.002-10.002,10.002
			s-10-4.479-10-10.002v-32.324c0-4.279-3.467-7.749-7.749-7.749c-4.281,0-7.748,3.47-7.748,7.749v32.324
			c0,5.523-4.48,10.002-10.003,10.002s-10-4.479-10-10.002v-32.324c0-4.279-3.468-7.749-7.751-7.749
			c-4.279,0-7.748,3.47-7.748,7.749v32.324c0,5.523-4.478,10.002-10.002,10.002c-5.522,0-10-4.479-10-10.002v-32.324
			c0-4.279-3.467-7.749-7.749-7.749c-4.281,0-7.748,3.47-7.748,7.749v32.324c0,5.523-4.48,10.002-10.003,10.002
			s-9.999-4.479-9.999-10.002v-81.83H145c-5.522,0-10,4.477-10,10v99.998c0,8.285,6.715,15,15,15h245.894l-16.31-22.604
			l-7.292,10.107h-3.126l8.857-12.767l-8.857-12.234h3.126l7.292,10.104l7.292-10.104h3.126l-8.857,12.234l17.525,25.264h21.331
			c8.285,0,14.999-6.715,14.999-15v-69.68l-18.332,26.915v12.767h-3.126v-12.767l-8.333-12.232h3.126L415.106,601.632z
			 M409.542,604.993v15.533h11.125v-15.533l10.334-15.169v56.701c0,6.075-4.925,11-11,11h-19.236l-14.717-21.216l11.785-16.283
			H384.83l-5.246,7.272l-5.246-7.272h-13.002l11.784,16.283l-11.597,16.718h12.814l5.246-7.273l8.492,11.771H150
			c-6.075,0-11-4.925-11-11v-99.998c0-3.219,2.534-5.864,5.749-5.994v77.824c0,7.731,6.267,14,13.999,14
			c7.73,0,14.002-6.269,14.002-14v-32.324c0-2.069,1.681-3.747,3.749-3.747c2.071,0,3.75,1.678,3.75,3.747v32.324
			c0,7.731,6.268,14,13.999,14c7.732,0,14.002-6.269,14.002-14v-32.324c0-2.069,1.681-3.747,3.748-3.747
			c2.071,0,3.752,1.678,3.752,3.747v32.324c0,7.731,6.267,14,13.999,14c7.73,0,14.002-6.269,14.002-14v-32.324
			c0-2.069,1.679-3.747,3.749-3.747c2.069,0,3.75,1.678,3.75,3.747v32.324c0,7.731,6.268,14,13.999,14s14.001-6.269,14.001-14
			v-32.324c0-2.069,1.678-3.747,3.749-3.747s3.752,1.678,3.752,3.747v32.324c0,7.731,6.267,14,14.002,14
			c7.728,0,13.999-6.269,13.999-14v-32.324c0-2.069,1.677-3.747,3.747-3.747c2.071,0,3.752,1.678,3.752,3.747v32.324
			c0,7.731,6.268,14,14.002,14c7.729,0,13.998-6.269,13.998-14v-41.581h41.58c7.732,0,13.999-6.267,13.999-13.999
			s-6.267-14.002-13.999-14.002H359.51c-2.071,0-3.747-1.679-3.747-3.75c0-2.068,1.676-3.749,3.747-3.749h32.321
			c7.732,0,13.999-6.268,13.999-13.999c0-7.732-6.267-14.002-13.999-14.002H359.51c-2.071,0-3.747-1.68-3.747-3.752
			c0-2.067,1.676-3.748,3.747-3.748h32.321c7.732,0,13.999-6.267,13.999-14.002c0-7.728-6.267-13.999-13.999-13.999H359.51
			c-2.071,0-3.747-1.679-3.747-3.75c0-2.069,1.676-3.749,3.747-3.749h32.321c7.732,0,13.999-6.268,13.999-14.002
			c0-7.729-6.267-13.998-13.999-13.998H359.51c-2.071,0-3.747-1.682-3.747-3.752c0-2.068,1.676-3.747,3.747-3.747h32.321
			c7.732,0,13.999-6.269,13.999-14.002c0-7.729-6.267-13.999-13.999-13.999H359.51c-2.071,0-3.747-1.681-3.747-3.75
			c0-2.07,1.676-3.75,3.747-3.75h32.321c7.732,0,13.999-6.269,13.999-13.999c0-7.732-6.267-14.002-13.999-14.002h-77.825
			c0.133-3.215,2.778-5.75,5.996-5.75h99.999c6.075,0,11,4.925,11,11V570.72l-15.896,23.726l-4.636-6.92h-12.825L409.542,604.993z"
			/>
		<g>
			<path fill="#404040" d="M420.001,362.525c7.719,0,13.999,6.28,13.999,13.999v270.001c0,7.72-6.28,14-13.999,14H150
				c-7.72,0-14-6.28-14-14v-99.998c0-7.722,6.28-14.003,14-14.003h140c8.822,0,15.999-7.177,15.999-15.999V376.524
				c0-7.719,6.282-13.999,14.003-13.999H420.001 M420.001,361.525h-99.999c-8.285,0-15.003,6.715-15.003,14.999v140.001
				c0,8.284-6.714,14.999-14.999,14.999H150c-8.285,0-15,6.718-15,15.003v99.998c0,8.285,6.715,15,15,15h270.001
				c8.285,0,14.999-6.715,14.999-15V376.524C435,368.24,428.286,361.525,420.001,361.525L420.001,361.525z"/>
		</g>
	</g>
	<g>
		<g>
			<path fill="#009EE3" d="M164.636,652.213h-1.635l-1.336-3.533h-5.344l-1.257,3.533h-1.644l4.834-12.604h1.529L164.636,652.213z
				 M161.182,647.352l-1.978-5.369c-0.064-0.176-0.129-0.457-0.193-0.844h-0.035c-0.059,0.357-0.126,0.639-0.202,0.844l-1.96,5.369
				H161.182z"/>
		</g>
		<g>
			<g>
				<path fill="#009EE3" d="M420.824,392.562h-1.441v-10.89c-0.111,0.111-0.274,0.239-0.488,0.382
					c-0.214,0.145-0.454,0.286-0.721,0.427s-0.548,0.272-0.844,0.396s-0.584,0.22-0.866,0.29v-1.459
					c0.316-0.088,0.652-0.206,1.006-0.356c0.354-0.148,0.703-0.316,1.046-0.5c0.343-0.186,0.667-0.379,0.971-0.58
					c0.305-0.203,0.568-0.4,0.791-0.594h0.545V392.562z"/>
			</g>
		</g>
		<g>
			<g>
				<path fill="#009EE3" d="M422.838,424.44c0,0.568-0.107,1.086-0.321,1.551c-0.214,0.467-0.516,0.865-0.905,1.195
					c-0.39,0.332-0.857,0.588-1.402,0.77s-1.146,0.272-1.802,0.272c-1.201,0-2.156-0.229-2.865-0.686v-1.547
					c0.85,0.668,1.822,1.002,2.918,1.002c0.439,0,0.836-0.056,1.191-0.167s0.659-0.272,0.914-0.483s0.451-0.466,0.589-0.765
					s0.207-0.636,0.207-1.011c0-1.646-1.172-2.47-3.516-2.47H416.8v-1.222h0.993c2.074,0,3.111-0.773,3.111-2.32
					c0-1.43-0.791-2.145-2.373-2.145c-0.891,0-1.726,0.299-2.505,0.896v-1.397c0.803-0.48,1.758-0.721,2.865-0.721
					c0.527,0,1.005,0.073,1.433,0.22s0.794,0.352,1.099,0.615s0.541,0.58,0.708,0.949s0.25,0.776,0.25,1.222
					c0,1.658-0.838,2.725-2.514,3.199v0.035c0.428,0.047,0.823,0.151,1.187,0.313s0.677,0.37,0.94,0.628s0.47,0.562,0.62,0.909
					C422.763,423.634,422.838,424.019,422.838,424.44z"/>
			</g>
		</g>
		<g>
			<g>
				<path fill="#009EE3" d="M422.978,459.606c0,0.615-0.105,1.172-0.316,1.67s-0.511,0.926-0.901,1.283s-0.86,0.633-1.411,0.826
					s-1.163,0.29-1.837,0.29c-1.172,0-2.042-0.176-2.61-0.527v-1.529c0.855,0.551,1.731,0.826,2.628,0.826
					c0.457,0,0.869-0.067,1.235-0.202s0.678-0.322,0.936-0.563s0.456-0.53,0.593-0.87s0.207-0.712,0.207-1.116
					c0-0.82-0.275-1.463-0.826-1.93c-0.551-0.465-1.351-0.698-2.399-0.698c-0.17,0-0.349,0.003-0.536,0.009
					s-0.375,0.014-0.563,0.021c-0.188,0.01-0.371,0.02-0.549,0.031s-0.341,0.026-0.488,0.044l0.431-6.319h5.827v1.301h-4.579
					l-0.255,3.7c0.188-0.012,0.387-0.022,0.598-0.03c0.211-0.01,0.398-0.014,0.563-0.014c0.668,0,1.266,0.088,1.793,0.264
					s0.974,0.426,1.34,0.752c0.366,0.324,0.645,0.724,0.835,1.195S422.978,459.021,422.978,459.606z"/>
			</g>
		</g>
		<g>
			<g>
				<path fill="#009EE3" d="M423.339,487.135c-0.193,0.334-0.426,0.75-0.699,1.248s-0.561,1.058-0.866,1.679
					s-0.615,1.289-0.932,2.004s-0.612,1.453-0.888,2.215s-0.517,1.533-0.725,2.316c-0.208,0.781-0.359,1.551-0.453,2.307h-1.547
					c0.105-0.75,0.268-1.516,0.488-2.299c0.22-0.781,0.469-1.549,0.747-2.303c0.278-0.752,0.573-1.478,0.883-2.175
					s0.612-1.339,0.905-1.925s0.561-1.104,0.804-1.551c0.243-0.449,0.438-0.799,0.584-1.051h-6.319V486.3h8.016V487.135z"/>
			</g>
		</g>
		<g>
			<g>
				<path fill="#009EE3" d="M423.286,527.293c0,1.154-0.114,2.182-0.343,3.081s-0.563,1.66-1.002,2.285
					c-0.439,0.623-0.976,1.098-1.608,1.424c-0.633,0.324-1.354,0.487-2.162,0.487c-0.832,0-1.564-0.146-2.197-0.439v-1.38
					c0.697,0.393,1.441,0.589,2.232,0.589c0.568,0,1.077-0.117,1.525-0.352s0.828-0.575,1.138-1.024
					c0.311-0.447,0.548-1,0.712-1.656s0.246-1.409,0.246-2.259h-0.035c-0.539,1.084-1.477,1.626-2.813,1.626
					c-0.539,0-1.034-0.095-1.485-0.285s-0.841-0.46-1.169-0.809s-0.583-0.764-0.765-1.244s-0.272-1.011-0.272-1.591
					c0-0.621,0.101-1.189,0.303-1.705s0.483-0.959,0.844-1.331s0.788-0.661,1.283-0.866s1.036-0.308,1.622-0.308
					c0.633,0,1.194,0.127,1.683,0.383c0.489,0.254,0.901,0.627,1.235,1.115c0.334,0.49,0.589,1.092,0.765,1.807
					S423.286,526.373,423.286,527.293z M421.73,526.001c0-0.486-0.063-0.929-0.189-1.327s-0.3-0.739-0.523-1.024
					c-0.223-0.283-0.488-0.503-0.795-0.658s-0.643-0.233-1.006-0.233c-0.346,0-0.668,0.069-0.967,0.206
					c-0.299,0.139-0.558,0.332-0.778,0.58c-0.22,0.25-0.393,0.545-0.519,0.889c-0.126,0.342-0.189,0.716-0.189,1.12
					c0,0.445,0.06,0.844,0.18,1.195s0.292,0.649,0.514,0.892c0.223,0.244,0.491,0.43,0.804,0.559s0.661,0.193,1.042,0.193
					c0.334,0,0.649-0.063,0.945-0.189c0.296-0.125,0.554-0.295,0.773-0.51c0.22-0.213,0.393-0.465,0.519-0.756
					C421.667,526.647,421.73,526.335,421.73,526.001z"/>
			</g>
		</g>
		<g>
			<g>
				<path fill="#009EE3" d="M339.065,402.265c0-0.387-0.061-0.724-0.181-1.011s-0.284-0.525-0.492-0.716s-0.452-0.333-0.733-0.427
					s-0.586-0.141-0.914-0.141c-0.281,0-0.557,0.038-0.826,0.114s-0.532,0.182-0.787,0.316s-0.501,0.296-0.738,0.483
					s-0.458,0.396-0.663,0.624v-1.547c0.404-0.393,0.856-0.692,1.357-0.9s1.112-0.313,1.833-0.313c0.516,0,0.993,0.074,1.433,0.225
					c0.439,0.148,0.82,0.367,1.143,0.654s0.575,0.642,0.76,1.063s0.277,0.905,0.277,1.45c0,0.498-0.058,0.949-0.172,1.354
					s-0.287,0.785-0.519,1.143s-0.522,0.7-0.874,1.028s-0.765,0.662-1.239,1.002c-0.592,0.422-1.08,0.782-1.464,1.081
					s-0.688,0.579-0.914,0.84s-0.384,0.521-0.475,0.781c-0.091,0.262-0.136,0.562-0.136,0.901h6.275v1.292h-7.778v-0.624
					c0-0.539,0.059-1.014,0.176-1.424s0.311-0.8,0.58-1.169s0.622-0.738,1.059-1.107s0.972-0.785,1.604-1.248
					c0.457-0.328,0.839-0.642,1.146-0.94s0.556-0.598,0.743-0.896s0.32-0.603,0.399-0.909
					C339.025,402.937,339.065,402.61,339.065,402.265z"/>
			</g>
		</g>
		<g>
			<g>
				<path fill="#009EE3" d="M339.751,434.178v8.323h1.617v1.318h-1.617v2.962h-1.424v-2.962h-5.924v-1.248
					c0.551-0.621,1.107-1.284,1.67-1.991c0.563-0.705,1.1-1.422,1.612-2.148s0.987-1.451,1.424-2.176
					c0.437-0.723,0.805-1.416,1.104-2.078H339.751z M334.03,442.501h4.298v-6.17c-0.439,0.768-0.855,1.453-1.248,2.057
					s-0.767,1.151-1.121,1.644s-0.692,0.938-1.015,1.336S334.317,442.144,334.03,442.501z"/>
			</g>
		</g>
		<g>
			<g>
				<path fill="#009EE3" d="M341.263,477.999c0,0.615-0.1,1.181-0.299,1.696s-0.475,0.961-0.826,1.336s-0.771,0.667-1.257,0.875
					c-0.486,0.207-1.014,0.312-1.582,0.312c-0.633,0-1.2-0.132-1.701-0.396s-0.926-0.643-1.274-1.139
					c-0.349-0.494-0.613-1.1-0.795-1.814s-0.272-1.521-0.272-2.417c0-1.096,0.121-2.09,0.364-2.983s0.589-1.658,1.037-2.295
					c0.448-0.635,0.989-1.126,1.622-1.472s1.339-0.519,2.118-0.519c0.867,0,1.564,0.12,2.092,0.36v1.362
					c-0.65-0.334-1.336-0.501-2.057-0.501c-0.563,0-1.069,0.126-1.521,0.378s-0.838,0.608-1.16,1.068s-0.57,1.015-0.743,1.665
					s-0.259,1.374-0.259,2.171h0.035c0.58-1.049,1.538-1.573,2.874-1.573c0.551,0,1.047,0.094,1.489,0.281s0.82,0.452,1.134,0.796
					c0.313,0.342,0.556,0.751,0.726,1.226S341.263,477.419,341.263,477.999z M339.786,478.184c0-0.439-0.056-0.835-0.167-1.187
					s-0.271-0.65-0.479-0.896s-0.464-0.435-0.769-0.567c-0.305-0.131-0.65-0.197-1.037-0.197c-0.357,0-0.688,0.067-0.993,0.202
					s-0.568,0.318-0.791,0.55s-0.397,0.5-0.523,0.809c-0.126,0.307-0.188,0.634-0.188,0.979c0,0.434,0.062,0.839,0.185,1.218
					c0.123,0.377,0.296,0.707,0.519,0.988s0.487,0.503,0.795,0.664s0.649,0.241,1.024,0.241c0.363,0,0.694-0.068,0.993-0.206
					s0.554-0.33,0.765-0.576s0.375-0.541,0.492-0.883C339.728,478.979,339.786,478.6,339.786,478.184z"/>
			</g>
		</g>
		<g>
			<g>
				<path fill="#009EE3" d="M334.072,513.699c0-0.334,0.053-0.668,0.158-1.006c0.105-0.336,0.256-0.652,0.452-0.945
					s0.439-0.559,0.729-0.799s0.62-0.432,0.989-0.572c-0.545-0.305-0.979-0.695-1.301-1.174c-0.322-0.477-0.483-1.006-0.483-1.586
					c0-0.463,0.089-0.891,0.268-1.283s0.427-0.732,0.743-1.02s0.691-0.51,1.125-0.672c0.434-0.16,0.902-0.242,1.406-0.242
					c0.51,0,0.981,0.082,1.415,0.246s0.809,0.391,1.125,0.678s0.563,0.627,0.738,1.02s0.264,0.816,0.264,1.273
					c0,0.58-0.161,1.109-0.483,1.586c-0.322,0.479-0.75,0.869-1.283,1.174c0.363,0.141,0.688,0.332,0.976,0.572
					s0.528,0.506,0.725,0.799s0.348,0.609,0.453,0.945c0.105,0.338,0.158,0.672,0.158,1.006c0,0.551-0.1,1.055-0.299,1.512
					s-0.479,0.848-0.84,1.174c-0.36,0.324-0.791,0.578-1.292,0.76s-1.053,0.273-1.656,0.273c-0.598,0-1.146-0.092-1.644-0.273
					s-0.929-0.436-1.292-0.76c-0.363-0.326-0.646-0.717-0.849-1.174S334.072,514.25,334.072,513.699z M335.636,513.576
					c0,0.393,0.06,0.748,0.18,1.064s0.29,0.586,0.51,0.809s0.486,0.395,0.8,0.514c0.313,0.121,0.661,0.18,1.042,0.18
					c0.369,0,0.709-0.061,1.02-0.184s0.578-0.297,0.804-0.52s0.401-0.492,0.527-0.809s0.189-0.668,0.189-1.055
					c0-0.352-0.061-0.682-0.181-0.988c-0.12-0.309-0.291-0.578-0.514-0.813s-0.489-0.42-0.8-0.555s-0.659-0.201-1.046-0.201
					c-0.363,0-0.699,0.063-1.007,0.188c-0.308,0.127-0.574,0.303-0.8,0.527c-0.226,0.227-0.402,0.496-0.531,0.809
					C335.7,512.857,335.636,513.201,335.636,513.576z M336.084,507.732c0,0.299,0.054,0.574,0.162,0.83
					c0.108,0.254,0.258,0.479,0.448,0.668c0.19,0.191,0.412,0.34,0.664,0.447c0.252,0.109,0.521,0.164,0.809,0.164
					s0.558-0.057,0.813-0.168s0.477-0.262,0.664-0.453c0.188-0.189,0.337-0.412,0.448-0.668c0.111-0.254,0.167-0.527,0.167-0.82
					c0-0.305-0.055-0.586-0.163-0.844s-0.256-0.48-0.443-0.668s-0.409-0.336-0.664-0.445c-0.255-0.107-0.528-0.162-0.821-0.162
					c-0.311,0-0.594,0.057-0.849,0.168s-0.475,0.262-0.659,0.451c-0.185,0.191-0.326,0.416-0.426,0.674
					S336.084,507.439,336.084,507.732z"/>
			</g>
		</g>
		<g>
			<g>
				<path fill="#009EE3" d="M333.792,552.433h-1.441v-10.89c-0.111,0.111-0.274,0.239-0.488,0.382
					c-0.214,0.145-0.454,0.286-0.721,0.427s-0.548,0.272-0.844,0.396s-0.584,0.22-0.865,0.29v-1.459
					c0.316-0.088,0.651-0.206,1.006-0.356c0.354-0.148,0.703-0.316,1.046-0.5c0.343-0.186,0.667-0.379,0.972-0.58
					c0.305-0.203,0.568-0.4,0.791-0.594h0.545V552.433z"/>
				<path fill="#009EE3" d="M346.097,546.078c0,1.055-0.096,1.989-0.286,2.804s-0.466,1.502-0.826,2.061
					c-0.36,0.561-0.803,0.984-1.327,1.275c-0.524,0.289-1.12,0.435-1.788,0.435c-0.633,0-1.197-0.14-1.692-0.417
					c-0.495-0.278-0.912-0.685-1.252-1.218s-0.598-1.188-0.773-1.964s-0.264-1.666-0.264-2.668c0-1.102,0.092-2.074,0.276-2.918
					s0.456-1.551,0.813-2.123c0.357-0.57,0.801-1.002,1.331-1.291c0.53-0.291,1.139-0.436,1.824-0.436
					C344.776,539.618,346.097,541.771,346.097,546.078z M344.62,546.219c0-3.586-0.853-5.379-2.558-5.379
					c-1.799,0-2.698,1.825-2.698,5.476c0,3.404,0.882,5.106,2.646,5.106C343.75,551.422,344.62,549.688,344.62,546.219z"/>
			</g>
		</g>
		<g>
			<g>
				<path fill="#009EE3" d="M415.972,569.798h-1.441v-10.89c-0.111,0.111-0.274,0.239-0.488,0.382
					c-0.214,0.145-0.454,0.286-0.721,0.427s-0.548,0.272-0.844,0.396s-0.584,0.22-0.866,0.29v-1.459
					c0.316-0.088,0.652-0.206,1.006-0.356c0.354-0.148,0.703-0.316,1.046-0.5c0.343-0.186,0.667-0.379,0.971-0.58
					c0.305-0.203,0.568-0.4,0.791-0.594h0.545V569.798z"/>
				<path fill="#009EE3" d="M425.676,569.798h-1.441v-10.89c-0.111,0.111-0.274,0.239-0.488,0.382
					c-0.214,0.145-0.454,0.286-0.721,0.427s-0.548,0.272-0.844,0.396s-0.584,0.22-0.866,0.29v-1.459
					c0.316-0.088,0.652-0.206,1.006-0.356c0.354-0.148,0.703-0.316,1.046-0.5c0.343-0.186,0.667-0.379,0.971-0.58
					c0.305-0.203,0.568-0.4,0.791-0.594h0.545V569.798z"/>
			</g>
		</g>
		<g>
			<path fill="#009EE3" d="M199.41,651.686c-0.932,0.492-2.092,0.738-3.48,0.738c-1.793,0-3.229-0.578-4.307-1.732
				s-1.617-2.668-1.617-4.543c0-2.016,0.606-3.645,1.819-4.887s2.751-1.863,4.614-1.863c1.195,0,2.186,0.172,2.971,0.518v1.574
				c-0.902-0.504-1.898-0.756-2.988-0.756c-1.447,0-2.621,0.482-3.52,1.449s-1.349,2.26-1.349,3.877c0,1.535,0.42,2.758,1.261,3.67
				c0.841,0.91,1.944,1.365,3.309,1.365c1.266,0,2.361-0.281,3.287-0.844V651.686z"/>
		</g>
		<g>
			<path fill="#009EE3" d="M234.249,652.213h-6.68v-12.604h6.398v1.336h-4.922v4.191h4.553v1.328h-4.553v4.412h5.203V652.213z"/>
		</g>
		<g>
			<path fill="#009EE3" d="M271.088,651.352c-1.266,0.715-2.672,1.072-4.219,1.072c-1.799,0-3.253-0.58-4.363-1.74
				s-1.666-2.695-1.666-4.605c0-1.951,0.617-3.553,1.851-4.803c1.233-1.252,2.796-1.877,4.688-1.877
				c1.371,0,2.522,0.223,3.454,0.668v1.635c-1.02-0.645-2.227-0.967-3.621-0.967c-1.412,0-2.569,0.486-3.472,1.459
				s-1.354,2.232-1.354,3.779c0,1.594,0.419,2.846,1.257,3.758c0.838,0.91,1.975,1.365,3.41,1.365c0.984,0,1.837-0.195,2.558-0.588
				v-3.533h-2.76v-1.336h4.236V651.352z"/>
		</g>
		<g>
			<path fill="#009EE3" d="M302.641,652.213h-1.477v-12.604h1.477V652.213z"/>
		</g>
		<g>
			<path fill="#009EE3" d="M174.292,570.451v-12.604h3.586c1.09,0,1.954,0.267,2.593,0.8s0.958,1.228,0.958,2.083
				c0,0.715-0.193,1.336-0.58,1.863s-0.92,0.902-1.6,1.125v0.035c0.85,0.1,1.529,0.421,2.039,0.963s0.765,1.246,0.765,2.113
				c0,1.078-0.387,1.951-1.16,2.619s-1.749,1.002-2.927,1.002H174.292z M175.769,559.184v4.069h1.512
				c0.809,0,1.444-0.194,1.907-0.585c0.463-0.389,0.694-0.938,0.694-1.647c0-1.225-0.806-1.837-2.417-1.837H175.769z
				 M175.769,564.58v4.535h2.004c0.867,0,1.54-0.205,2.018-0.615s0.716-0.973,0.716-1.688c0-1.488-1.014-2.232-3.041-2.232H175.769z
				"/>
		</g>
		<g>
			<path fill="#009EE3" d="M209.169,570.451v-12.604h3.48c4.441,0,6.662,2.048,6.662,6.144c0,1.945-0.617,3.509-1.85,4.688
				c-1.233,1.182-2.884,1.771-4.953,1.771H209.169z M210.646,559.184v9.932h1.881c1.652,0,2.938-0.442,3.858-1.327
				s1.38-2.139,1.38-3.762c0-3.229-1.717-4.843-5.15-4.843H210.646z"/>
		</g>
		<g>
			<path fill="#009EE3" d="M252.748,559.184h-4.922v4.359h4.553v1.327h-4.553v5.581h-1.477v-12.604h6.398V559.184z"/>
		</g>
		<g>
			<path fill="#009EE3" d="M289.173,570.451h-1.477v-5.748h-6.521v5.748h-1.477v-12.604h1.477v5.528h6.521v-5.528h1.477V570.451z"/>
		</g>
		<g>
			<path fill="#009EE3" d="M320.261,565.934c0,1.494-0.316,2.656-0.949,3.484c-0.633,0.83-1.479,1.244-2.54,1.244
				c-0.492,0-0.896-0.07-1.213-0.211v-1.459c0.316,0.229,0.727,0.343,1.23,0.343c1.33,0,1.995-1.128,1.995-3.384v-8.104h1.477
				V565.934z"/>
		</g>
		<g>
			<path fill="#009EE3" d="M342.828,652.213h-2.057l-4.869-5.766c-0.182-0.217-0.293-0.363-0.334-0.439h-0.035v6.205h-1.477v-12.604
				h1.477v5.924h0.035c0.082-0.129,0.193-0.273,0.334-0.432l4.711-5.492h1.837l-5.405,6.047L342.828,652.213z"/>
		</g>
	</g>
</g>
</svg>
